<?xml version="1.0" encoding="iso-8859-1"?>
<!-- Generator: Adobe Illustrator 19.0.0, SVG Export Plug-In . SVG Version: 6.00 Build 0)  -->
<svg version="1.1" id="Capa_1" xmlns="http://www.w3.org/2000/svg" xmlns:xlink="http://www.w3.org/1999/xlink" x="0px" y="0px"
	 viewBox="0 0 512.001 512.001" style="enable-background:new 0 0 512.001 512.001;" xml:space="preserve">
<g>
	<path style="fill:#4482C3;" d="M147.271,3.737L58.376,136.151c-1.902,2.694-2.143,6.224-0.626,9.152
		c1.517,2.928,4.54,4.766,7.838,4.766h18.274c4.875,0,8.828,3.952,8.828,8.828v335.448c0,9.751,7.904,17.655,17.655,17.655h88.276
		c9.751,0,17.655-7.904,17.655-17.655V158.897c0-4.875,3.952-8.828,8.828-8.828h18.274c3.298,0,6.321-1.838,7.838-4.766
		c1.517-2.928,1.276-6.458-0.626-9.152L161.695,3.737C160.041,1.394,157.352,0,154.483,0C151.615,0,148.925,1.394,147.271,3.737z"/>
	<path style="fill:#CC4B4C;" d="M350.305,508.263L261.411,375.85c-1.902-2.694-2.143-6.224-0.626-9.152s4.54-4.766,7.838-4.766
		h18.274c4.875,0,8.828-3.952,8.828-8.828V17.656C295.725,7.905,303.629,0,313.38,0h88.276c9.751,0,17.655,7.904,17.655,17.655
		v335.448c0,4.875,3.952,8.828,8.828,8.828h18.274c3.298,0,6.321,1.838,7.838,4.766s1.276,6.458-0.626,9.152L364.73,508.263
		c-1.654,2.344-4.344,3.737-7.212,3.737S351.96,510.607,350.305,508.263z"/>
</g>
<g>
</g>
<g>
</g>
<g>
</g>
<g>
</g>
<g>
</g>
<g>
</g>
<g>
</g>
<g>
</g>
<g>
</g>
<g>
</g>
<g>
</g>
<g>
</g>
<g>
</g>
<g>
</g>
<g>
</g>
</svg>
