<?xml version="1.0" encoding="iso-8859-1"?>
<!-- Generator: Adobe Illustrator 19.0.0, SVG Export Plug-In . SVG Version: 6.00 Build 0)  -->
<svg version="1.1" id="Capa_1" xmlns="http://www.w3.org/2000/svg" xmlns:xlink="http://www.w3.org/1999/xlink" x="0px" y="0px"
	 viewBox="0 0 368 368" style="enable-background:new 0 0 368 368;" xml:space="preserve">
<path style="fill:#CCE4FF;" d="M88.002,8l80,112h-48v232c0,4.4-3.6,8-8,8h-48c-4.4,0-8-3.6-8-8V120h-48L88.002,8z"/>
<g>
	<path style="fill:#007AFF;" d="M273.498,364.648c1.496,2.104,3.92,3.352,6.504,3.352s5.008-1.248,6.504-3.352l80-112
		c1.744-2.44,1.976-5.648,0.608-8.312S363.002,240,360.002,240h-40V16c0-8.824-7.176-16-16-16h-48c-8.824,0-16,7.176-16,16v224h-40
		c-3,0-5.744,1.672-7.12,4.336c-1.368,2.664-1.136,5.872,0.608,8.312L273.498,364.648z M248.002,256c4.424,0,8-3.584,8-8V16h48v232
		c0,4.416,3.576,8,8,8h32.456l-64.456,90.232L215.546,256H248.002z"/>
	<path style="fill:#007AFF;" d="M8.002,128h40v224c0,8.824,7.176,16,16,16h48c8.824,0,16-7.176,16-16V128h40
		c3,0,5.744-1.672,7.112-4.336s1.136-5.872-0.6-8.312l-80-112c-3.008-4.208-10.016-4.208-13.024,0l-80,112
		c-1.736,2.44-1.976,5.648-0.6,8.312S5.002,128,8.002,128z M88.002,21.768L152.458,112h-32.456c-4.416,0-8,3.584-8,8v232h-48V120
		c0-4.416-3.584-8-8-8H23.546L88.002,21.768z"/>
</g>
<g>
</g>
<g>
</g>
<g>
</g>
<g>
</g>
<g>
</g>
<g>
</g>
<g>
</g>
<g>
</g>
<g>
</g>
<g>
</g>
<g>
</g>
<g>
</g>
<g>
</g>
<g>
</g>
<g>
</g>
</svg>
