<?xml version="1.0" encoding="iso-8859-1"?>
<!-- Generator: Adobe Illustrator 19.0.0, SVG Export Plug-In . SVG Version: 6.00 Build 0)  -->
<svg version="1.1" id="Capa_1" xmlns="http://www.w3.org/2000/svg" xmlns:xlink="http://www.w3.org/1999/xlink" x="0px" y="0px"
	 viewBox="0 0 512.003 512.003" style="enable-background:new 0 0 512.003 512.003;" xml:space="preserve">
<g>
	<g>
		<g>
			<path style="fill:#231F20;" d="M211.481,44.523h289.391c6.155,0,11.13-4.986,11.13-11.13s-4.975-11.13-11.13-11.13H211.481
				c-6.144,0-11.13,4.986-11.13,11.13S205.337,44.523,211.481,44.523z"/>
			<path style="fill:#231F20;" d="M500.872,200.349H211.481c-6.144,0-11.13,4.986-11.13,11.13s4.986,11.13,11.13,11.13h289.391
				c6.155,0,11.13-4.986,11.13-11.13S507.027,200.349,500.872,200.349z"/>
			<path style="fill:#231F20;" d="M211.481,133.567h200.348c6.155,0,11.13-4.986,11.13-11.13c0-6.144-4.975-11.13-11.13-11.13
				H211.481c-6.144,0-11.13,4.986-11.13,11.13C200.351,128.58,205.337,133.567,211.481,133.567z"/>
			<path style="fill:#231F20;" d="M411.829,467.48H211.481c-6.144,0-11.13,4.975-11.13,11.13s4.986,11.13,11.13,11.13h200.348
				c6.155,0,11.13-4.975,11.13-11.13S417.984,467.48,411.829,467.48z"/>
			<path style="fill:#231F20;" d="M500.872,378.436H211.481c-6.144,0-11.13,4.975-11.13,11.13s4.986,11.13,11.13,11.13h289.391
				c6.155,0,11.13-4.975,11.13-11.13S507.027,378.436,500.872,378.436z"/>
			<path style="fill:#231F20;" d="M211.481,311.654h200.348c6.155,0,11.13-4.975,11.13-11.13c0-6.155-4.975-11.13-11.13-11.13
				H211.481c-6.144,0-11.13,4.975-11.13,11.13C200.351,306.678,205.337,311.654,211.481,311.654z"/>
			<path style="fill:#231F20;" d="M136.829,85.784c4.352,4.352,11.386,4.352,15.738,0c2.17-2.17,3.261-5.02,3.261-7.869
				c0-2.849-1.091-5.699-3.261-7.869L85.785,3.263c-1.981-1.981-4.53-3.061-7.123-3.239H78.65c-0.701-0.045-1.402-0.022-2.093,0.067
				c-0.011,0-0.011,0-0.022,0c-2.137,0.267-4.207,1.146-5.933,2.649c-0.211,0.189-0.412,0.378-0.612,0.579L3.264,70.045
				c-4.352,4.352-4.352,11.386,0,15.738c4.352,4.352,11.386,4.352,15.738,0l47.783-47.783v436.001l-47.772-47.783
				c-4.352-4.352-11.386-4.352-15.738,0s-4.352,11.386,0,15.738l66.727,66.727c0.2,0.2,0.401,0.39,0.612,0.579
				c1.714,1.491,3.773,2.382,5.899,2.649h0.011c0.456,0.056,0.924,0.089,1.391,0.089c0.245,0,0.49-0.011,0.735-0.022
				c0.011,0,0.011,0,0.011,0c2.593-0.178,5.142-1.247,7.123-3.239l66.783-66.783c2.17-2.17,3.261-5.02,3.261-7.869
				c0-2.849-1.091-5.699-3.261-7.869c-4.352-4.352-11.386-4.352-15.738,0l-47.783,47.783V38.001L136.829,85.784z"/>
		</g>
	</g>
</g>
<g>
</g>
<g>
</g>
<g>
</g>
<g>
</g>
<g>
</g>
<g>
</g>
<g>
</g>
<g>
</g>
<g>
</g>
<g>
</g>
<g>
</g>
<g>
</g>
<g>
</g>
<g>
</g>
<g>
</g>
</svg>
