<?xml version="1.0" encoding="iso-8859-1"?>
<!-- Generator: Adobe Illustrator 19.0.0, SVG Export Plug-In . SVG Version: 6.00 Build 0)  -->
<svg version="1.1" id="Capa_1" xmlns="http://www.w3.org/2000/svg" xmlns:xlink="http://www.w3.org/1999/xlink" x="0px" y="0px"
	 viewBox="0 0 368.002 368.002" style="enable-background:new 0 0 368.002 368.002;" xml:space="preserve">
<g>
	<path style="fill:#007AFF;" d="M360.002,15.974h-208c-4.416,0-8,3.584-8,8s3.584,8,8,8h208c4.416,0,8-3.584,8-8
		S364.418,15.974,360.002,15.974z"/>
	<path style="fill:#007AFF;" d="M360.002,143.974h-208c-4.416,0-8,3.584-8,8s3.584,8,8,8h208c4.416,0,8-3.584,8-8
		S364.418,143.974,360.002,143.974z"/>
	<path style="fill:#007AFF;" d="M152.002,95.974h144c4.416,0,8-3.584,8-8s-3.584-8-8-8h-144c-4.416,0-8,3.584-8,8
		S147.586,95.974,152.002,95.974z"/>
	<path style="fill:#007AFF;" d="M296.002,335.974h-144c-4.416,0-8,3.584-8,8s3.584,8,8,8h144c4.416,0,8-3.584,8-8
		S300.418,335.974,296.002,335.974z"/>
	<path style="fill:#007AFF;" d="M360.002,271.974h-208c-4.416,0-8,3.584-8,8s3.584,8,8,8h208c4.416,0,8-3.584,8-8
		S364.418,271.974,360.002,271.974z"/>
	<path style="fill:#007AFF;" d="M152.002,223.974h144c4.416,0,8-3.584,8-8s-3.584-8-8-8h-144c-4.416,0-8,3.584-8,8
		S147.586,223.974,152.002,223.974z"/>
	<path style="fill:#007AFF;" d="M13.658,306.318c-3.128-3.128-8.184-3.128-11.312,0s-3.128,8.184,0,11.312l48,48
		c0.736,0.736,1.624,1.32,2.6,1.728c0.976,0.4,2.016,0.616,3.056,0.616c1.04,0,2.08-0.216,3.056-0.616
		c0.976-0.408,1.864-0.992,2.6-1.728l48-48c3.128-3.128,3.128-8.184,0-11.312s-8.184-3.128-11.312,0l-34.344,34.344V27.286
		L98.346,61.63c3.128,3.128,8.184,3.128,11.312,0s3.128-8.184,0-11.312l-48-48c-0.696-0.696-1.52-1.192-2.384-1.584
		c-0.256-0.112-0.504-0.184-0.768-0.272C57.85,0.246,57.186,0.11,56.49,0.07c-0.264-0.016-0.52-0.048-0.784-0.04
		c-0.856,0.032-1.704,0.176-2.536,0.496c-0.072,0.024-0.144,0.024-0.208,0.056c-0.008,0-0.016,0-0.024,0.008
		c-0.896,0.376-1.664,0.928-2.344,1.568c-0.072,0.072-0.176,0.088-0.248,0.168l-48,48c-3.128,3.128-3.128,8.184,0,11.312
		c1.56,1.552,3.608,2.336,5.656,2.336s4.096-0.784,5.656-2.344l34.344-34.344v313.376L13.658,306.318z"/>
</g>
<g>
</g>
<g>
</g>
<g>
</g>
<g>
</g>
<g>
</g>
<g>
</g>
<g>
</g>
<g>
</g>
<g>
</g>
<g>
</g>
<g>
</g>
<g>
</g>
<g>
</g>
<g>
</g>
<g>
</g>
</svg>
