<svg id="Capa_1" enable-background="new 0 0 512 512" height="512" viewBox="0 0 512 512" width="512" xmlns="http://www.w3.org/2000/svg"><g><path d="m245.951 61.809v90.311h-92.474v-152.12h-153.477v512h512v-450.191zm236.049 30v30.763h-48.896v-30.763zm-206.049 60.762h48.255v30.004h-48.255zm78.255 0h48.897v30.004h-48.897zm78.898 0h48.896v30.004h-48.896zm-30-60.762v30.763h-48.897v-30.763zm-78.898 0v30.763h-48.255v-30.763zm-200.728-61.835v94.153h-93.478v-94.153zm-93.478 452.026v-327.873h93.478v327.873zm215.951 0h-92.474v-299.88h92.474zm30 0v-269.425h48.255v269.425zm78.255 0v-269.425h48.897v269.425zm78.898 0v-269.425h48.896v269.425z"/><path d="m184.116 308.845h30v138.639h-30z"/><path d="m60.997 416.202h30v31.282h-30z"/><path d="m60.997 261.246h30v119.599h-30z"/><path d="m60.997 64.125h30v31.282h-30z"/></g></svg>