<svg height="496pt" viewBox="0 -28 496.01062 496" width="496pt" xmlns="http://www.w3.org/2000/svg"><path d="m16 40.015625h384v384h-384zm0 0" fill="#57a4ff"/><g fill="#004fac"><path d="m8 440.015625h400c4.417969 0 8-3.582031 8-8v-271.902344c0-4.417969-3.582031-8-8-8s-8 3.582031-8 8v263.902344h-384v-384h320c4.417969 0 8-3.582031 8-8s-3.582031-8-8-8h-328c-4.417969 0-8 3.582031-8 8v400c0 4.417969 3.582031 8 8 8zm0 0"/><path d="m482.398438 2.289062-313.933594 306.101563-106.449219-121.640625c-1.8125-2.371094-4.796875-3.535156-7.742187-3.019531-2.941407.519531-5.347657 2.632812-6.246094 5.480469-.894532 2.851562-.128906 5.960937 1.988281 8.070312l112 128c1.4375 1.644531 3.480469 2.632812 5.664063 2.734375h.320312c2.09375.003906 4.101562-.8125 5.601562-2.273437l320-312c3.160157-3.089844 3.21875-8.164063.125-11.328126-3.089843-3.160156-8.164062-3.21875-11.328124-.125zm0 0"/></g></svg>